<?xml version="1.0" standalone="no"?>
<!DOCTYPE svg PUBLIC "-//W3C//DTD SVG 20010904//EN"
 "http://www.w3.org/TR/2001/REC-SVG-20010904/DTD/svg10.dtd">
<svg version="1.0" xmlns="http://www.w3.org/2000/svg"
 width="1000.000000pt" height="600.000000pt" viewBox="0 0 1000.000000 600.000000"
 preserveAspectRatio="xMidYMid meet">

<g transform="translate(0.000000,600.000000) scale(0.100000,-0.100000)"
fill="#000000" stroke="none">
<path d="M1535 3956 l-150 -91 0 -189 0 -189 255 -157 255 -158 40 24 c22 13
95 57 162 97 l123 72 0 185 0 185 -237 140 c-131 76 -251 147 -268 156 l-30
17 -150 -92z"/>
<path d="M780 2373 l-145 -89 -3 -189 -2 -190 237 -145 c130 -80 246 -150 257
-157 18 -10 41 1 176 81 l155 92 3 191 2 191 -251 147 c-138 81 -259 149 -268
152 -9 2 -81 -36 -161 -84z"/>
<path d="M7040 2383 c1 -183 148 -407 327 -497 135 -68 105 -66 1058 -66 845
0 861 0 893 20 55 34 62 66 62 280 0 208 -6 240 -55 278 l-28 22 -1128 0
-1129 0 0 -37z m720 -88 c44 -23 60 -53 60 -113 0 -48 -4 -58 -34 -88 -32 -32
-38 -34 -105 -34 l-71 0 0 -65 0 -65 -45 0 -45 0 0 190 0 190 105 0 c75 0 115
-4 135 -15z m355 -167 c39 -100 72 -185 73 -190 2 -4 -19 -8 -47 -8 -49 0 -51
2 -65 35 l-15 35 -70 0 -71 0 -14 -35 c-14 -33 -18 -35 -60 -35 -26 0 -46 5
-46 10 0 10 127 347 137 363 2 4 28 7 56 7 l52 0 70 -182z m205 110 l1 -73 65
73 66 72 60 0 60 0 -82 -90 -83 -90 49 -56 c27 -31 63 -72 81 -93 18 -20 32
-39 33 -43 0 -5 -24 -8 -54 -8 -55 0 -55 0 -112 65 -68 76 -84 74 -84 -11 l0
-54 -45 0 -45 0 0 190 0 190 45 0 45 0 0 -72z m550 32 l0 -40 -91 0 -90 0 3
-32 3 -33 78 -3 77 -3 0 -39 0 -40 -80 0 -80 0 0 -35 0 -35 90 0 90 0 0 -40 0
-40 -135 0 -135 0 0 190 0 190 135 0 135 0 0 -40z m340 0 l0 -40 -50 0 -50 0
0 -151 0 -150 -47 3 -48 3 -3 148 -3 147 -49 0 -50 0 0 40 0 40 150 0 150 0 0
-40z"/>
<path d="M7612 2183 l3 -48 44 2 c56 2 79 22 65 60 -8 25 -15 28 -62 31 l-53
3 3 -48z"/>
<path d="M7977 2160 c-33 -78 -33 -80 13 -80 46 0 45 -4 15 80 l-13 35 -15
-35z"/>
</g>
</svg>
